<svg width="19" height="18" viewBox="0 0 19 18" fill="none" xmlns="http://www.w3.org/2000/svg">
<path d="M9.86998 1.5416L9.57701 1.83373L9.28405 1.54077C8.27212 0.547265 6.9088 -0.00645921 5.4907 5.68644e-05C4.0726 0.00657294 2.71443 0.572802 1.71167 1.57556C0.70891 2.57833 0.142681 3.93649 0.136165 5.35459C0.129649 6.7727 0.683373 8.13601 1.67688 9.14794L1.96984 9.44091L9.57701 17.0481L17.1842 9.44091L17.4772 9.14794C18.4628 8.13443 19.0098 6.77366 18.9999 5.35996C18.99 3.94627 18.4239 2.5933 17.4242 1.59369C16.4245 0.594089 15.0715 0.0282128 13.6578 0.0184637C12.2441 0.00871456 10.8834 0.555876 9.86998 1.5416Z" fill="white"/>
</svg>
