<svg width="17" height="16" viewBox="0 0 17 16" fill="none" xmlns="http://www.w3.org/2000/svg">
<path d="M8.49985 0C5.5591 0 3.1665 2.39259 3.1665 5.33334C3.1665 6.21616 3.38722 7.09147 3.80682 7.86784L8.20819 15.8281C8.26679 15.9342 8.37844 16 8.49985 16C8.62125 16 8.73291 15.9342 8.7915 15.8281L13.1945 7.86522C13.6125 7.09147 13.8332 6.21613 13.8332 5.33331C13.8332 2.39259 11.4406 0 8.49985 0ZM8.49985 8C7.02947 8 5.83319 6.80372 5.83319 5.33334C5.83319 3.86297 7.02947 2.66669 8.49985 2.66669C9.97022 2.66669 11.1665 3.86297 11.1665 5.33334C11.1665 6.80372 9.97022 8 8.49985 8Z" fill="white"/>
</svg>
