<svg width="165" height="40" viewBox="0 0 165 40" fill="none" xmlns="http://www.w3.org/2000/svg">
<g clip-path="url(#clip0_13_1546)">
<path d="M48.604 28.2463H60.2714V24.7341H52.7509V11.5049H48.604V28.2463Z" fill="white"/>
<path d="M67.1841 25.9048C65.5207 25.9048 64.6538 24.4531 64.6538 22.2755C64.6538 20.098 65.5207 18.6229 67.1841 18.6229C68.8475 18.6229 69.7378 20.098 69.7378 22.2755C69.7378 24.4531 68.8475 25.9048 67.1841 25.9048ZM67.2075 28.6209C71.0732 28.6209 73.6035 25.8814 73.6035 22.2755C73.6035 18.6697 71.0732 15.9302 67.2075 15.9302C63.3652 15.9302 60.7881 18.6697 60.7881 22.2755C60.7881 25.8814 63.3652 28.6209 67.2075 28.6209Z" fill="white"/>
<path d="M80.295 32.3906C82.0756 32.3906 83.6453 31.9926 84.6996 31.056C85.6602 30.1897 86.2928 28.8784 86.2928 27.0755V16.258H82.6379V17.5458H82.591C81.8882 16.5389 80.8105 15.9067 79.2173 15.9067C76.2419 15.9067 74.1802 18.3887 74.1802 21.9009C74.1802 25.577 76.687 27.5906 79.3813 27.5906C80.8339 27.5906 81.7476 27.0053 82.4505 26.2092H82.5442V27.4033C82.5442 28.855 81.8648 29.698 80.2482 29.698C78.983 29.698 78.3505 29.1594 78.1396 28.5272H74.4379C74.8127 31.0326 76.9916 32.3906 80.295 32.3906ZM80.2716 24.7575C78.8425 24.7575 77.9053 23.5867 77.9053 21.7838C77.9053 19.9575 78.8425 18.7867 80.2716 18.7867C81.8648 18.7867 82.7082 20.1448 82.7082 21.7604C82.7082 23.4463 81.935 24.7575 80.2716 24.7575Z" fill="white"/>
<path d="M93.8076 25.9048C92.1442 25.9048 91.2773 24.4531 91.2773 22.2755C91.2773 20.098 92.1442 18.6229 93.8076 18.6229C95.4711 18.6229 96.3613 20.098 96.3613 22.2755C96.3613 24.4531 95.4711 25.9048 93.8076 25.9048ZM93.831 28.6209C97.6968 28.6209 100.227 25.8814 100.227 22.2755C100.227 18.6697 97.6968 15.9302 93.831 15.9302C89.9888 15.9302 87.4116 18.6697 87.4116 22.2755C87.4116 25.8814 89.9888 28.6209 93.831 28.6209Z" fill="white"/>
<path d="M101.342 28.2463H105.161V16.2581H101.342V28.2463ZM101.342 14.5956H105.161V11.5049H101.342V14.5956Z" fill="white"/>
<path d="M106.818 32.2033H110.637V27.0053H110.684C111.433 28.0121 112.534 28.6209 114.081 28.6209C117.22 28.6209 119.305 26.1389 119.305 22.2521C119.305 18.6463 117.361 15.9067 114.174 15.9067C112.534 15.9067 111.363 16.6326 110.543 17.7097H110.473V16.258H106.818V32.2033ZM113.097 25.6706C111.457 25.6706 110.52 24.336 110.52 22.3926C110.52 20.4492 111.363 18.9741 113.026 18.9741C114.666 18.9741 115.44 20.3321 115.44 22.3926C115.44 24.4297 114.549 25.6706 113.097 25.6706Z" fill="white"/>
<path d="M125.523 28.6209C128.662 28.6209 130.982 27.2628 130.982 24.6404C130.982 21.5731 128.498 21.0345 126.39 20.6833C124.867 20.4023 123.508 20.2853 123.508 19.4423C123.508 18.6931 124.234 18.3419 125.171 18.3419C126.226 18.3419 126.952 18.6697 127.092 19.7467H130.607C130.419 17.3819 128.592 15.9067 125.195 15.9067C122.36 15.9067 120.017 17.218 120.017 19.7467C120.017 22.5565 122.243 23.1184 124.328 23.4697C125.921 23.7506 127.374 23.8677 127.374 24.9448C127.374 25.7175 126.647 26.1389 125.499 26.1389C124.234 26.1389 123.438 25.5536 123.297 24.3594H119.689C119.806 27.0053 122.008 28.6209 125.523 28.6209Z" fill="white"/>
<path d="M136.169 28.5973C137.832 28.5973 138.887 27.9417 139.753 26.771H139.824V28.2461H143.479V16.2578H139.66V22.9544C139.66 24.3827 138.863 25.3661 137.551 25.3661C136.333 25.3661 135.747 24.6403 135.747 23.329V16.2578H131.952V24.1251C131.952 26.7944 133.404 28.5973 136.169 28.5973Z" fill="white"/>
<path d="M145.14 28.2463H148.959V21.5263C148.959 20.098 149.662 19.0911 150.857 19.0911C152.005 19.0911 152.544 19.8404 152.544 21.1282V28.2463H156.362V21.5263C156.362 20.098 157.042 19.0911 158.26 19.0911C159.408 19.0911 159.947 19.8404 159.947 21.1282V28.2463H163.766V20.4492C163.766 17.7565 162.407 15.9067 159.689 15.9067C158.143 15.9067 156.854 16.5623 155.917 18.0141H155.87C155.261 16.7263 154.066 15.9067 152.497 15.9067C150.763 15.9067 149.615 16.7263 148.865 17.9672H148.795V16.258H145.14V28.2463Z" fill="white"/>
<path d="M25.3051 1.92855L21.4658 0.900391L18.2303 12.9683L15.3092 2.07331L11.4698 3.10146L14.6258 14.8727L6.7649 7.01647L3.95426 9.82543L12.5767 18.4428L1.83882 15.5673L0.810059 19.4044L12.5425 22.5462C12.4082 21.9672 12.3371 21.3639 12.3371 20.744C12.3371 16.3561 15.8963 12.799 20.2868 12.799C24.6773 12.799 28.2365 16.3561 28.2365 20.744C28.2365 21.3599 28.1663 21.9595 28.0337 22.5351L38.6963 25.3904L39.725 21.5533L27.9459 18.399L38.6845 15.5233L37.6557 11.6862L25.8771 14.8404L33.738 6.98421L30.9273 4.17525L22.4245 12.673L25.3051 1.92855Z" fill="white"/>
<path d="M28.0231 22.5801C27.6939 23.9709 26.999 25.2204 26.0454 26.2214L33.77 33.9415L36.5807 31.1326L28.0231 22.5801Z" fill="white"/>
<path d="M25.9673 26.3022C25.0022 27.2873 23.7827 28.0224 22.415 28.4013L25.2259 38.8852L29.0652 37.857L25.9673 26.3022Z" fill="white"/>
<path d="M22.2718 28.4394C21.6373 28.6024 20.9722 28.6891 20.2868 28.6891C19.5525 28.6891 18.8414 28.5896 18.1664 28.4033L15.353 38.8968L19.1924 39.9249L22.2718 28.4394Z" fill="white"/>
<path d="M18.0305 28.3644C16.6837 27.9668 15.4858 27.2223 14.5405 26.2344L6.79688 33.9734L9.60751 36.7824L18.0305 28.3644Z" fill="white"/>
<path d="M14.4761 26.1661C13.547 25.172 12.8702 23.9392 12.548 22.5698L1.85059 25.4345L2.87934 29.2716L14.4761 26.1661Z" fill="white"/>
</g>
<defs>
<clipPath id="clip0_13_1546">
<rect width="164" height="40" fill="white" transform="translate(0.5)"/>
</clipPath>
</defs>
</svg>
