<svg width="99" height="50" viewBox="0 0 99 50" fill="none" xmlns="http://www.w3.org/2000/svg">
<path d="M3.03369 28.938H5.80995V42.5563H3.03369V28.938Z" fill="white"/>
<path d="M7.42014 37.89C7.41831 36.9119 7.70658 35.9551 8.24847 35.1409C8.79036 34.3267 9.56151 33.6916 10.4643 33.316C11.3671 32.9404 12.361 32.8412 13.3203 33.0309C14.2795 33.2206 15.1609 33.6907 15.8529 34.3818C16.545 35.0727 17.0165 35.9536 17.2079 36.9128C17.3994 37.8721 17.3021 38.8666 16.9283 39.7705C16.5546 40.6743 15.9212 41.447 15.1083 41.9906C14.2955 42.5343 13.3397 42.8244 12.3619 42.8244C11.7116 42.8319 11.0665 42.7094 10.4642 42.4641C9.86186 42.2189 9.31454 41.8559 8.8543 41.3963C8.39405 40.9368 8.03013 40.3899 7.78386 39.7877C7.5376 39.1857 7.41394 38.5405 7.42014 37.89ZM14.5088 37.89C14.4979 37.4677 14.3628 37.058 14.1203 36.7123C13.8779 36.3664 13.5389 36.0998 13.1457 35.9457C12.7525 35.7916 12.3227 35.757 11.91 35.846C11.4973 35.935 11.12 36.1438 10.8252 36.4463C10.5305 36.7487 10.3315 37.1315 10.253 37.5466C10.1746 37.9616 10.2202 38.3906 10.3842 38.7798C10.5482 39.169 10.8233 39.5013 11.175 39.7349C11.5269 39.9685 11.9396 40.0932 12.3619 40.0933C12.6507 40.1015 12.9382 40.0496 13.206 39.941C13.4738 39.8324 13.7163 39.6694 13.9181 39.4624C14.1197 39.2553 14.2765 39.0087 14.3781 38.7381C14.4798 38.4675 14.5243 38.1787 14.5088 37.89Z" fill="white"/>
<path d="M28.4638 33.2241V42.0931C28.4638 45.2316 26.0114 46.5555 23.5313 46.5555C22.6592 46.6204 21.786 46.4439 21.0074 46.0455C20.2288 45.6471 19.5749 45.042 19.1171 44.2966L21.5047 42.9172C21.6941 43.2991 21.9939 43.6155 22.3651 43.8251C22.7364 44.0347 23.162 44.128 23.5869 44.0928C23.8664 44.1395 24.1529 44.1213 24.4244 44.0395C24.6959 43.9578 24.9449 43.8149 25.1523 43.6217C25.3597 43.4284 25.52 43.1901 25.6209 42.9251C25.7217 42.6601 25.7603 42.3755 25.7338 42.0931V41.2322C25.4074 41.6339 24.9909 41.953 24.5183 42.1637C24.0456 42.3744 23.53 42.4708 23.0131 42.445C21.7565 42.445 20.5513 41.9456 19.6627 41.0567C18.7741 40.1677 18.2749 38.9621 18.2749 37.7049C18.2749 36.4477 18.7741 35.2421 19.6627 34.3532C20.5513 33.4643 21.7565 32.9649 23.0131 32.9649C23.5297 32.9413 24.0446 33.0386 24.5169 33.2491C24.9893 33.4597 25.406 33.7776 25.7338 34.1776V33.2519L28.4638 33.2241ZM25.7338 37.7049C25.7523 37.2547 25.6357 36.8092 25.3991 36.4257C25.1624 36.0422 24.8166 35.7383 24.406 35.5531C23.9954 35.3678 23.5387 35.3097 23.0947 35.3862C22.6508 35.4625 22.2399 35.6701 21.9148 35.982C21.5897 36.2939 21.3652 36.696 21.2704 37.1365C21.1754 37.577 21.2144 38.0359 21.3823 38.454C21.5502 38.8722 21.8392 39.2306 22.2122 39.4831C22.5853 39.7358 23.0254 39.8709 23.4758 39.8713C23.7699 39.8921 24.0649 39.8511 24.3421 39.7508C24.6193 39.6505 24.8725 39.4933 25.0852 39.2892C25.2979 39.0851 25.4656 38.8386 25.5773 38.5658C25.689 38.2929 25.7423 37.9997 25.7338 37.7049Z" fill="white"/>
<path d="M30.0652 37.89C30.0633 36.9119 30.3516 35.9551 30.8935 35.1409C31.4354 34.3267 32.2066 33.6916 33.1093 33.316C34.0121 32.9404 35.006 32.8412 35.9653 33.0309C36.9245 33.2206 37.8059 33.6907 38.498 34.3818C39.1899 35.0727 39.6615 35.9536 39.853 36.9128C40.0444 37.8721 39.9471 38.8666 39.5733 39.7705C39.1996 40.6743 38.5662 41.447 37.7534 41.9906C36.9405 42.5343 35.9847 42.8244 35.0069 42.8244C34.3567 42.8319 33.7115 42.7094 33.1091 42.4641C32.5068 42.2189 31.9595 41.8559 31.4993 41.3963C31.0391 40.9368 30.6751 40.3899 30.4288 39.7877C30.1826 39.1857 30.0589 38.5405 30.0652 37.89ZM37.1539 37.89C37.1429 37.4677 37.0078 37.058 36.7653 36.7123C36.5229 36.3664 36.1839 36.0998 35.7907 35.9457C35.3976 35.7916 34.9678 35.757 34.555 35.846C34.1423 35.935 33.765 36.1438 33.4702 36.4463C33.1755 36.7487 32.9765 37.1315 32.898 37.5466C32.8196 37.9616 32.8652 38.3906 33.0292 38.7798C33.1932 39.169 33.4683 39.5013 33.82 39.7349C34.1719 39.9685 34.5846 40.0932 35.0069 40.0933C35.2943 40.0988 35.5796 40.0451 35.8453 39.9353C36.1109 39.8255 36.3511 39.6622 36.5508 39.4554C36.7505 39.2487 36.9055 39.0029 37.0061 38.7336C37.1067 38.4643 37.1507 38.1771 37.1354 37.89H37.1539Z" fill="white"/>
<path d="M41.2349 30.7245C41.2349 30.3912 41.3336 30.0655 41.5187 29.7884C41.7038 29.5113 41.9668 29.2954 42.2745 29.1678C42.5824 29.0403 42.921 29.0069 43.2477 29.0719C43.5744 29.1369 43.8745 29.2974 44.1101 29.533C44.3457 29.7687 44.506 30.0689 44.571 30.3957C44.636 30.7226 44.6026 31.0614 44.4752 31.3693C44.3477 31.6771 44.1318 31.9404 43.8549 32.1255C43.5778 32.3106 43.2523 32.4094 42.9191 32.4094C42.4732 32.407 42.0462 32.2287 41.7308 31.9132C41.4155 31.5978 41.2373 31.1707 41.2349 30.7245ZM41.5217 33.2241H44.298V42.556H41.5217V33.2241Z" fill="white"/>
<path d="M56.4022 37.8902C56.4358 38.5071 56.3472 39.1245 56.1414 39.707C55.9355 40.2894 55.6166 40.8254 55.2029 41.284C54.7891 41.7426 54.2888 42.1149 53.7307 42.3793C53.1726 42.6437 52.5677 42.7951 51.9509 42.8247C51.4331 42.8495 50.916 42.7605 50.4364 42.5637C49.9567 42.367 49.526 42.0674 49.1747 41.686V46.3149H46.3984V33.2242H49.1747V34.1037C49.526 33.7224 49.9567 33.4227 50.4364 33.226C50.916 33.0292 51.4331 32.9402 51.9509 32.965C52.5669 32.9946 53.171 33.1457 53.7284 33.4095C54.286 33.6734 54.7859 34.0448 55.1994 34.5025C55.6131 34.9601 55.9322 35.4949 56.1386 36.0763C56.345 36.6576 56.4346 37.2741 56.4022 37.8902ZM53.6259 37.8902C53.615 37.4557 53.4768 37.0339 53.2285 36.6772C52.9803 36.3205 52.633 36.0443 52.2295 35.8831C51.8261 35.7219 51.3841 35.6826 50.9586 35.7701C50.533 35.8576 50.1423 36.068 49.8351 36.3754C49.5279 36.6827 49.3176 37.0734 49.23 37.4992C49.1426 37.925 49.1819 38.3671 49.343 38.7707C49.5043 39.1743 49.7802 39.5219 50.1368 39.7701C50.4935 40.0184 50.9151 40.1567 51.3494 40.1676C51.6525 40.187 51.9562 40.1411 52.2402 40.0332C52.5241 39.9253 52.7817 39.7578 52.9956 39.5422C53.2094 39.3264 53.3748 39.0674 53.4803 38.7824C53.5858 38.4975 53.6292 38.1933 53.6074 37.8902H53.6259Z" fill="white"/>
<path d="M65.0457 39.7601C65.0457 41.908 63.1948 42.8244 61.1589 42.8244C60.3456 42.8965 59.5293 42.7234 58.8152 42.3274C58.1012 41.9314 57.5218 41.3307 57.1519 40.6026L59.5765 39.2232C59.6749 39.5599 59.8856 39.8529 60.1734 40.0533C60.4613 40.2537 60.809 40.3495 61.1589 40.3248C61.8345 40.3248 62.1676 40.1119 62.1676 39.7416C62.1676 38.714 57.5405 39.2602 57.5405 36.0385C57.5405 34.0017 59.2618 32.9741 61.2422 32.9741C61.973 32.9519 62.6964 33.1255 63.3375 33.4772C63.9786 33.8288 64.514 34.3455 64.8884 34.9738L62.4545 36.2514C62.347 36.0069 62.1708 35.7989 61.9474 35.6526C61.7239 35.5063 61.463 35.4281 61.1959 35.4274C60.7147 35.4274 60.4186 35.6126 60.4186 35.9551C60.4556 37.0197 65.0457 36.3069 65.0457 39.7601Z" fill="white"/>
<path d="M75.2624 33.2241V42.5561H72.486V41.6859C72.1631 42.0726 71.7533 42.3773 71.2901 42.5752C70.8269 42.7731 70.3234 42.8585 69.8208 42.8246C67.97 42.8246 66.332 41.4822 66.332 38.9548V33.2241H69.1083V38.5475C69.0839 38.7743 69.1103 39.0037 69.1856 39.2191C69.2609 39.4345 69.3831 39.6304 69.5435 39.7927C69.7038 39.9549 69.8984 40.0793 70.1128 40.157C70.3272 40.2347 70.5563 40.2635 70.7833 40.2417C71.8013 40.2417 72.5139 39.6491 72.5139 38.3253V33.2241H75.2624Z" fill="white"/>
<path d="M91.3089 36.8344V42.5558H88.5326V37.0752C88.5326 36.1494 88.0791 35.5383 87.1908 35.5383C86.3024 35.5383 85.7286 36.1957 85.7286 37.2973V42.5558H82.9524V37.0752C82.9524 36.1494 82.5081 35.5383 81.6104 35.5383C80.7129 35.5383 80.1576 36.1957 80.1576 37.2973V42.5558H77.3813V33.2239H80.1576V34.0849C80.4478 33.7046 80.8283 33.4029 81.2647 33.2073C81.7011 33.0116 82.1794 32.9282 82.6562 32.9647C83.135 32.9414 83.6118 33.0426 84.0399 33.2583C84.468 33.4741 84.833 33.7971 85.0993 34.196C85.409 33.779 85.8193 33.4473 86.2919 33.232C86.7645 33.0167 87.2839 32.9247 87.8015 32.9647C89.9115 32.9647 91.3089 34.5015 91.3089 36.8344Z" fill="white"/>
<path d="M93.678 33.1685C94.8228 33.1685 95.7509 32.24 95.7509 31.0947C95.7509 29.9494 94.8228 29.021 93.678 29.021C92.5331 29.021 91.605 29.9494 91.605 31.0947C91.605 32.24 92.5331 33.1685 93.678 33.1685Z" fill="white"/>
<path d="M34.4513 21.8742C39.8127 21.8742 44.1589 17.5262 44.1589 12.1627C44.1589 6.79917 39.8127 2.45117 34.4513 2.45117C29.09 2.45117 24.7437 6.79917 24.7437 12.1627C24.7437 17.5262 29.09 21.8742 34.4513 21.8742Z" fill="white"/>
<path d="M56.1525 21.8742C61.5139 21.8742 65.8601 17.5262 65.8601 12.1627C65.8601 6.79917 61.5139 2.45117 56.1525 2.45117C50.7911 2.45117 46.4448 6.79917 46.4448 12.1627C46.4448 17.5262 50.7911 21.8742 56.1525 21.8742Z" fill="white"/>
<path d="M22.4578 2.45117H3.05176V21.8649H22.4578V2.45117Z" fill="white"/>
</svg>
