<svg width="17" height="16" viewBox="0 0 17 16" fill="none" xmlns="http://www.w3.org/2000/svg">
<g clip-path="url(#clip0_13_1643)">
<path d="M14.2861 11.1361C13.3196 10.3094 12.3386 9.80864 11.3839 10.6341L10.8139 11.133C10.3968 11.4951 9.62129 13.1872 6.62297 9.73808C3.62527 6.29332 5.40915 5.75697 5.82687 5.39795L6.40006 4.89843C7.34976 4.07112 6.99136 3.02963 6.3064 1.95755L5.89305 1.30819C5.20498 0.238608 4.45571 -0.463831 3.50351 0.362237L2.98901 0.811798C2.56818 1.11837 1.39182 2.1149 1.10648 4.00805C0.763063 6.27958 1.84638 8.88079 4.32833 11.7349C6.80716 14.5902 9.23417 16.0244 11.5332 15.9995C13.4438 15.9789 14.5977 14.9536 14.9586 14.5809L15.4749 14.1307C16.4246 13.3052 15.8346 12.4648 14.8674 11.6362L14.2861 11.1361Z" fill="white"/>
</g>
<defs>
<clipPath id="clip0_13_1643">
<rect width="16" height="16" fill="white" transform="translate(0.5)"/>
</clipPath>
</defs>
</svg>
