<svg width="40" height="40" viewBox="0 0 40 40" fill="none" xmlns="http://www.w3.org/2000/svg">
<path d="M32.1667 10.4998C33.8334 12.3332 34.8334 14.3332 34.8334 17.6665C34.8334 23.4998 30.6667 28.6665 24.8334 31.3332L23.3334 29.1665C28.8334 26.1665 30.0001 22.3332 30.3334 19.8332C29.5001 20.3332 28.3334 20.4998 27.1667 20.3332C24.1667 19.9998 21.8334 17.6665 21.8334 14.4998C21.8334 12.9998 22.5001 11.4998 23.5001 10.3332C24.6667 9.1665 26.0001 8.6665 27.6667 8.6665C29.5001 8.6665 31.1667 9.49984 32.1667 10.4998ZM15.5001 10.4998C17.1667 12.3332 18.1667 14.3332 18.1667 17.6665C18.1667 23.4998 14.0001 28.6665 8.16675 31.3332L6.66675 29.1665C12.1667 26.1665 13.3334 22.3332 13.6667 19.8332C12.8334 20.3332 11.6667 20.4998 10.5001 20.3332C7.50008 19.9998 5.16675 17.4998 5.16675 14.4998C5.16675 12.9998 5.83341 11.4998 6.83341 10.3332C8.00008 9.1665 9.33342 8.6665 11.0001 8.6665C12.8334 8.6665 14.5001 9.49984 15.5001 10.4998Z" fill="#141414"/>
</svg>
