<svg width="139" height="35" viewBox="0 0 139 35" fill="none" xmlns="http://www.w3.org/2000/svg">
<path fill-rule="evenodd" clip-rule="evenodd" d="M122.194 17.8542V27.3641H125.015H127.837V26.3824C127.837 25.8425 127.88 25.4007 127.933 25.4007C127.986 25.4007 128.125 25.5623 128.241 25.7598C128.515 26.2229 129.254 26.8062 130.004 27.1501C130.499 27.3767 130.811 27.4211 131.885 27.4182C133.627 27.4133 134.518 27.058 135.695 25.8997C137.344 24.2766 138.053 21.8767 137.756 18.926C137.405 15.4451 135.5 13.1469 132.63 12.7409C130.739 12.4734 129.304 13.0338 128.175 14.4797L127.839 14.9091L127.838 11.6267L127.837 8.34424H125.015H122.194V17.8542ZM32.64 11.3506V13.6207H35.075H37.51L37.4979 20.4924L37.4857 27.3641H40.2766H43.0675V20.4924V13.6207H45.521H47.9745V11.3506V9.08049H40.3073H32.64V11.3506ZM80.1156 11.1052V12.8845H79.1956H78.2755V15.2159V17.5474H79.1956H80.1156L80.1177 19.9709C80.1205 23.1915 80.354 24.2571 81.3279 25.4944C81.7466 26.0263 82.7183 26.6649 83.4892 26.9146C84.2189 27.151 85.9621 27.3616 87.2002 27.3631L88.0896 27.3641V24.9874V22.6107L87.1688 22.5516C85.7347 22.4595 85.7587 22.5066 85.7587 19.7985V17.5474H86.9242H88.0896V15.2159V12.8845H86.9242H85.7587V11.1052V9.32591H82.9372H80.1156V11.1052ZM53.7795 12.7664C50.6492 13.3257 48.6129 16.6241 48.8726 20.7147C49.0122 22.9155 49.6611 24.5668 50.8746 25.81C52.1924 27.16 54.1279 27.7505 55.9606 27.3615C56.8516 27.1724 57.9838 26.4671 58.4163 25.8318C58.5772 25.5956 58.7501 25.4021 58.8007 25.4016C58.8512 25.4011 58.8927 25.8425 58.8927 26.3824V27.3641H61.6529H64.4131V20.1243V12.8845H61.6529H58.8927V13.86V14.8354L58.126 14.059C57.5453 13.471 57.1826 13.2177 56.6313 13.0154C55.7799 12.703 54.6746 12.6065 53.7795 12.7664ZM95.8172 12.7518C92.761 13.1769 90.502 15.2709 89.8729 18.2622C89.1684 21.6119 90.4923 25.0131 93.0594 26.4491C94.3565 27.1747 95.3222 27.4178 96.9223 27.4215C98.5786 27.4253 99.6628 27.1459 100.983 26.3747C102.36 25.571 103.652 23.9227 103.983 22.5478L104.064 22.2103H101.116H98.1679L97.8189 22.5594C96.8408 23.5378 95.3422 22.8857 95.1832 21.4127L95.1435 21.0446L99.7745 21.0124L104.405 20.9803V20.0081C104.405 16.5202 102.548 13.897 99.4507 13.0111C98.5082 12.7415 96.779 12.6181 95.8172 12.7518ZM111.656 12.7659C108.777 13.1608 106.533 15.1624 105.814 17.9769C105.558 18.9818 105.564 21.1231 105.827 22.1805C106.405 24.5096 107.909 26.1776 110.18 27.0065C113.714 28.2964 117.919 26.769 119.419 23.6507C119.655 23.1622 119.882 22.6383 119.924 22.4864L120.002 22.2103H117.002C114.003 22.2103 114.002 22.2103 113.817 22.494C113.593 22.835 112.766 23.1073 112.292 22.9956C111.811 22.8821 111.295 22.3633 111.153 21.8492C110.891 20.9064 110.495 20.9832 115.615 20.9832H120.199L120.274 20.5178C120.375 19.8858 120.161 18.1156 119.882 17.269C119.194 15.1827 117.405 13.5412 115.19 12.9642C114.281 12.7273 112.618 12.634 111.656 12.7659ZM76.3449 12.951C75.4765 13.1848 74.246 13.9837 73.5055 14.794C73.1702 15.1611 72.8641 15.4613 72.8255 15.4613C72.7867 15.4613 72.7551 14.8815 72.7551 14.1729V12.8845H69.9335H67.112V20.1243V27.3641H69.9265H72.7411L72.7788 23.8975C72.823 19.8215 72.8586 19.6735 73.9205 19.1428C74.4532 18.8766 74.7316 18.8305 76.0367 18.7927L77.5394 18.7492V15.7555V12.7617L77.2634 12.7698C77.1115 12.7743 76.6984 12.8557 76.3449 12.951ZM96.1752 17.2523C95.7652 17.4226 95.2048 18.152 95.2048 18.5151C95.2048 18.6093 95.7624 18.6518 96.9989 18.6518H98.7931L98.7149 18.2611C98.5158 17.2651 97.3032 16.7834 96.1752 17.2523ZM112.045 17.2309C111.632 17.418 111.154 18.0652 111.153 18.437C111.153 18.6314 111.316 18.6518 112.87 18.6518C114.492 18.6518 114.588 18.6384 114.588 18.4121C114.588 18.0342 114.331 17.5684 114.006 17.3551C113.582 17.0772 112.53 17.0105 112.045 17.2309ZM56.0098 17.6717C55.5186 17.8247 54.9813 18.3423 54.7575 18.8779C54.5173 19.4532 54.5228 20.8012 54.7678 21.3707C55.4331 22.9173 57.7923 22.958 58.6143 21.437C58.9165 20.8781 58.9059 19.3635 58.5954 18.7329C58.1723 17.873 56.9602 17.3756 56.0098 17.6717ZM129.125 17.7782C128.541 18.0463 128.279 18.32 128.025 18.9283C127.803 19.4603 127.779 20.5288 127.976 21.1183C128.353 22.2477 129.637 22.865 130.742 22.4482C131.256 22.2545 131.871 21.6047 132.008 21.1113C132.303 20.0497 132.038 18.6683 131.438 18.1349C131.107 17.8409 130.362 17.5469 129.957 17.5501C129.769 17.5516 129.395 17.6541 129.125 17.7782Z" fill="white"/>
<path d="M131.341 34.2875V30.7998H131.772L131.815 31.3176H131.837C131.99 31.1498 132.158 31.0083 132.34 30.8933C132.527 30.7734 132.721 30.7135 132.923 30.7135C133.196 30.7135 133.407 30.7758 133.556 30.9005C133.709 31.0203 133.819 31.1833 133.886 31.3895C134.073 31.1881 134.26 31.0251 134.447 30.9005C134.639 30.7758 134.838 30.7135 135.044 30.7135C135.404 30.7135 135.67 30.8286 135.842 31.0587C136.015 31.2888 136.101 31.6268 136.101 32.0726V34.2875H135.576V32.1374C135.576 31.8018 135.521 31.5573 135.411 31.4039C135.301 31.2504 135.128 31.1737 134.893 31.1737C134.754 31.1737 134.608 31.2217 134.454 31.3176C134.306 31.4086 134.148 31.5477 133.98 31.7346V34.2875H133.455V32.1374C133.455 31.8018 133.4 31.5573 133.29 31.4039C133.184 31.2504 133.014 31.1737 132.779 31.1737C132.501 31.1737 132.194 31.3607 131.858 31.7346V34.2875H131.341Z" fill="white"/>
<path d="M129.241 34.3738C128.992 34.3738 128.754 34.3283 128.529 34.2372C128.304 34.1413 128.109 34.0262 127.946 33.892L128.212 33.5396C128.366 33.6595 128.524 33.7602 128.687 33.8417C128.85 33.9232 129.042 33.9639 129.262 33.9639C129.502 33.9639 129.682 33.9064 129.802 33.7913C129.922 33.6763 129.982 33.5396 129.982 33.3814C129.982 33.2568 129.941 33.1537 129.859 33.0722C129.778 32.9859 129.675 32.914 129.55 32.8565C129.425 32.7941 129.298 32.739 129.169 32.6911C129.006 32.6335 128.843 32.564 128.68 32.4825C128.517 32.401 128.38 32.298 128.27 32.1733C128.165 32.0487 128.112 31.8881 128.112 31.6915C128.112 31.4182 128.215 31.1881 128.421 31.0011C128.632 30.8094 128.924 30.7135 129.298 30.7135C129.509 30.7135 129.706 30.7519 129.888 30.8286C130.07 30.9053 130.226 30.9964 130.355 31.1018L130.104 31.4398C129.984 31.3535 129.859 31.2816 129.73 31.2241C129.605 31.1617 129.461 31.1306 129.298 31.1306C129.068 31.1306 128.898 31.1857 128.788 31.296C128.678 31.4015 128.622 31.5237 128.622 31.6627C128.622 31.7778 128.658 31.8737 128.73 31.9504C128.807 32.0223 128.905 32.0846 129.025 32.1374C129.145 32.1901 129.272 32.2428 129.406 32.2956C129.579 32.3579 129.747 32.4298 129.91 32.5113C130.077 32.588 130.216 32.6911 130.327 32.8205C130.437 32.95 130.492 33.1273 130.492 33.3527C130.492 33.5348 130.444 33.705 130.348 33.8632C130.252 34.0166 130.111 34.1413 129.924 34.2372C129.737 34.3283 129.509 34.3738 129.241 34.3738Z" fill="white"/>
<path d="M126.607 34.2876V30.7999H127.125V34.2876H126.607ZM126.873 30.052C126.773 30.052 126.687 30.0184 126.615 29.9513C126.547 29.8842 126.514 29.7955 126.514 29.6853C126.514 29.5798 126.547 29.4959 126.615 29.4336C126.687 29.3664 126.773 29.3329 126.873 29.3329C126.979 29.3329 127.065 29.3664 127.132 29.4336C127.199 29.4959 127.233 29.5798 127.233 29.6853C127.233 29.7955 127.199 29.8842 127.132 29.9513C127.065 30.0184 126.979 30.052 126.873 30.052Z" fill="white"/>
<path d="M124.164 34.2875V30.7998H124.595L124.638 31.4398H124.66C124.78 31.2193 124.924 31.0443 125.091 30.9149C125.264 30.7806 125.451 30.7135 125.652 30.7135C125.724 30.7135 125.789 30.7207 125.846 30.7351C125.904 30.7447 125.959 30.7614 126.012 30.7854L125.911 31.2456C125.854 31.2265 125.801 31.2121 125.753 31.2025C125.71 31.1929 125.652 31.1881 125.58 31.1881C125.432 31.1881 125.276 31.2504 125.113 31.3751C124.95 31.4949 124.806 31.7083 124.681 32.0151V34.2875H124.164Z" fill="white"/>
<path d="M121.287 34.3738C120.927 34.3738 120.661 34.2588 120.489 34.0286C120.316 33.7985 120.23 33.4605 120.23 33.0147V30.7998H120.747V32.95C120.747 33.2855 120.803 33.5324 120.913 33.6907C121.023 33.8441 121.201 33.9208 121.445 33.9208C121.627 33.9208 121.793 33.8728 121.941 33.7769C122.09 33.6763 122.25 33.5181 122.423 33.3023V30.7998H122.948V34.2875H122.509L122.466 33.7338H122.445C122.282 33.9256 122.109 34.0814 121.927 34.2012C121.745 34.3163 121.531 34.3738 121.287 34.3738Z" fill="white"/>
<path d="M117.727 34.3738C117.444 34.3738 117.181 34.3019 116.936 34.1581C116.692 34.0142 116.495 33.8081 116.346 33.5396C116.198 33.2664 116.123 32.9356 116.123 32.5472C116.123 32.1589 116.198 31.8281 116.346 31.5549C116.495 31.2816 116.692 31.0731 116.936 30.9292C117.181 30.7854 117.444 30.7135 117.727 30.7135C118.01 30.7135 118.271 30.7854 118.511 30.9292C118.755 31.0731 118.952 31.2816 119.101 31.5549C119.254 31.8281 119.331 32.1589 119.331 32.5472C119.331 32.9356 119.254 33.2664 119.101 33.5396C118.952 33.8081 118.755 34.0142 118.511 34.1581C118.271 34.3019 118.01 34.3738 117.727 34.3738ZM117.727 33.9351C117.938 33.9351 118.123 33.8776 118.281 33.7626C118.444 33.6475 118.568 33.4869 118.655 33.2807C118.746 33.0698 118.791 32.8253 118.791 32.5472C118.791 32.274 118.746 32.0319 118.655 31.8209C118.568 31.61 118.444 31.447 118.281 31.3319C118.123 31.2121 117.938 31.1522 117.727 31.1522C117.521 31.1522 117.336 31.2121 117.173 31.3319C117.015 31.447 116.89 31.61 116.799 31.8209C116.713 32.0319 116.67 32.274 116.67 32.5472C116.67 32.8253 116.713 33.0698 116.799 33.2807C116.89 33.4869 117.015 33.6475 117.173 33.7626C117.336 33.8776 117.521 33.9351 117.727 33.9351Z" fill="white"/>
<path d="M115.073 34.3739C114.713 34.3739 114.462 34.2684 114.318 34.0575C114.179 33.8465 114.109 33.5733 114.109 33.2377V31.2314H113.584V30.8358L114.131 30.7999L114.196 29.8147H114.634V30.7999H115.591V31.2314H114.634V33.2521C114.634 33.4678 114.673 33.638 114.749 33.7626C114.831 33.8825 114.977 33.9424 115.188 33.9424C115.25 33.9424 115.318 33.9328 115.389 33.9137C115.466 33.8945 115.533 33.8729 115.591 33.8489L115.699 34.2444C115.603 34.278 115.5 34.3068 115.389 34.3307C115.279 34.3595 115.174 34.3739 115.073 34.3739Z" fill="white"/>
<path d="M110.132 34.2875V30.7998H110.564L110.607 31.4398H110.629C110.748 31.2193 110.892 31.0443 111.06 30.9149C111.233 30.7806 111.42 30.7135 111.621 30.7135C111.693 30.7135 111.758 30.7207 111.815 30.7351C111.873 30.7447 111.928 30.7614 111.981 30.7854L111.88 31.2456C111.822 31.2265 111.77 31.2121 111.722 31.2025C111.679 31.1929 111.621 31.1881 111.549 31.1881C111.4 31.1881 111.245 31.2504 111.082 31.3751C110.919 31.4949 110.775 31.7083 110.65 32.0151V34.2875H110.132Z" fill="white"/>
<path d="M107.579 34.3738C107.296 34.3738 107.033 34.3019 106.788 34.1581C106.544 34.0142 106.347 33.8081 106.199 33.5396C106.05 33.2664 105.976 32.9356 105.976 32.5472C105.976 32.1589 106.05 31.8281 106.199 31.5549C106.347 31.2816 106.544 31.0731 106.788 30.9292C107.033 30.7854 107.296 30.7135 107.579 30.7135C107.862 30.7135 108.123 30.7854 108.363 30.9292C108.608 31.0731 108.804 31.2816 108.953 31.5549C109.106 31.8281 109.183 32.1589 109.183 32.5472C109.183 32.9356 109.106 33.2664 108.953 33.5396C108.804 33.8081 108.608 34.0142 108.363 34.1581C108.123 34.3019 107.862 34.3738 107.579 34.3738ZM107.579 33.9351C107.79 33.9351 107.975 33.8776 108.133 33.7626C108.296 33.6475 108.421 33.4869 108.507 33.2807C108.598 33.0698 108.644 32.8253 108.644 32.5472C108.644 32.274 108.598 32.0319 108.507 31.8209C108.421 31.61 108.296 31.447 108.133 31.3319C107.975 31.2121 107.79 31.1522 107.579 31.1522C107.373 31.1522 107.188 31.2121 107.025 31.3319C106.867 31.447 106.743 31.61 106.652 31.8209C106.565 32.0319 106.522 32.274 106.522 32.5472C106.522 32.8253 106.565 33.0698 106.652 33.2807C106.743 33.4869 106.867 33.6475 107.025 33.7626C107.188 33.8776 107.373 33.9351 107.579 33.9351Z" fill="white"/>
<path d="M104.284 34.2876V30.1958C104.284 29.9609 104.32 29.7595 104.392 29.5917C104.464 29.4239 104.572 29.2945 104.716 29.2034C104.865 29.1123 105.049 29.0668 105.27 29.0668C105.37 29.0668 105.469 29.0788 105.564 29.1027C105.665 29.1219 105.754 29.1483 105.831 29.1818L105.715 29.5845C105.648 29.551 105.581 29.5294 105.514 29.5198C105.447 29.5054 105.38 29.4982 105.313 29.4982C105.145 29.4982 105.018 29.5582 104.932 29.678C104.85 29.7979 104.809 29.9729 104.809 30.203V34.2876H104.284ZM103.81 31.2313V30.8358L104.306 30.7998H105.564V31.2313H103.81Z" fill="white"/>
<path fill-rule="evenodd" clip-rule="evenodd" d="M28.077 0.171477C27.7141 0.365851 26.4013 1.99624 16.6484 14.3649C14.5524 17.0231 12.815 19.2073 12.7878 19.2187C12.7606 19.2301 12.1386 18.7433 11.4057 18.1371C7.39966 14.8236 3.68322 11.8843 3.3813 11.7905C3.0943 11.7013 2.71367 11.8827 2.3299 12.2915C1.87934 12.7715 1.00821 13.9181 0.426279 14.797C0.036231 15.3861 -0.0169005 15.5126 0.00381836 15.8027C0.0261853 16.1163 0.0765702 16.1779 0.918665 16.9208C2.05373 17.9223 5.9564 21.2283 8.89581 23.6785C12.9372 27.0471 12.9375 27.0474 13.5358 26.8779C13.8677 26.7838 13.9055 26.7447 15.2022 25.159C15.7456 24.4944 19.6532 19.7277 23.8858 14.5663C28.1185 9.40484 31.7645 4.95511 31.9881 4.67792C32.7231 3.76703 32.7232 3.22402 31.9884 2.50114C31.3043 1.82796 29.4837 0.381236 29.0653 0.178163C28.5785 -0.0580182 28.5063 -0.0585009 28.077 0.171477ZM12.1527 8.20968C10.822 8.38496 9.46244 8.8135 8.2113 9.45204C6.90641 10.118 5.39605 11.253 5.61415 11.4038C5.96582 11.6468 8.84017 13.9474 10.5047 15.3179L12.5059 16.9657L12.6734 16.7931C12.9576 16.4999 18.5881 9.32824 18.5881 9.25928C18.5881 9.1656 17.4344 8.71603 16.7001 8.52359C15.2799 8.15144 13.5181 8.0298 12.1527 8.20968ZM24.2387 16.6436C23.1828 17.955 16.1582 26.5254 15.5642 27.2268C15.0163 27.8741 14.815 28.0512 14.3753 28.2734C13.9114 28.5078 13.7721 28.5402 13.2489 28.5357C12.1538 28.5264 12.2391 28.5888 4.89331 22.4203C3.25307 21.043 1.86145 19.8848 1.80079 19.8467C1.70731 19.7879 1.69805 19.9475 1.73949 20.8973C1.81421 22.6084 2.09987 23.726 2.89072 25.4006C4.75188 29.3417 8.51282 31.8347 13.0945 32.1645C15.1807 32.3146 17.7283 31.6605 19.6351 30.485C20.6968 29.8305 21.2954 29.3359 22.2121 28.3556C25.132 25.2331 26.1549 20.8385 24.9389 16.6405C24.8523 16.3415 24.7565 16.0992 24.7259 16.1022C24.6953 16.1051 24.4761 16.3488 24.2387 16.6436Z" fill="white"/>
<path fill-rule="evenodd" clip-rule="evenodd" d="M28.077 0.171477C27.7141 0.365851 26.4013 1.99624 16.6484 14.3649C14.5524 17.0231 12.815 19.2073 12.7878 19.2187C12.7606 19.2301 12.1386 18.7433 11.4057 18.1371C7.39966 14.8236 3.68322 11.8843 3.3813 11.7905C3.0943 11.7013 2.71367 11.8827 2.3299 12.2915C1.87934 12.7715 1.00821 13.9181 0.426279 14.797C0.036231 15.3861 -0.0169005 15.5126 0.00381836 15.8027C0.0261853 16.1163 0.0765702 16.1779 0.918665 16.9208C2.05373 17.9223 5.9564 21.2283 8.89581 23.6785C12.9372 27.0471 12.9375 27.0474 13.5358 26.8779C13.8677 26.7838 13.9055 26.7447 15.2022 25.159C15.7456 24.4944 19.6532 19.7277 23.8858 14.5663C28.1185 9.40484 31.7645 4.95511 31.9881 4.67792C32.7231 3.76703 32.7232 3.22402 31.9884 2.50114C31.3043 1.82796 29.4837 0.381236 29.0653 0.178163C28.5785 -0.0580182 28.5063 -0.0585009 28.077 0.171477ZM12.1527 8.20968C10.822 8.38496 9.46244 8.8135 8.2113 9.45204C6.90641 10.118 5.39605 11.253 5.61415 11.4038C5.96582 11.6468 8.84017 13.9474 10.5047 15.3179L12.5059 16.9657L12.6734 16.7931C12.9576 16.4999 18.5881 9.32824 18.5881 9.25928C18.5881 9.1656 17.4344 8.71603 16.7001 8.52359C15.2799 8.15144 13.5181 8.0298 12.1527 8.20968ZM24.2387 16.6436C23.1828 17.955 16.1582 26.5254 15.5642 27.2268C15.0163 27.8741 14.815 28.0512 14.3753 28.2734C13.9114 28.5078 13.7721 28.5402 13.2489 28.5357C12.1538 28.5264 12.2391 28.5888 4.89331 22.4203C3.25307 21.043 1.86145 19.8848 1.80079 19.8467C1.70731 19.7879 1.69805 19.9475 1.73949 20.8973C1.81421 22.6084 2.09987 23.726 2.89072 25.4006C4.75188 29.3417 8.51282 31.8347 13.0945 32.1645C15.1807 32.3146 17.7283 31.6605 19.6351 30.485C20.6968 29.8305 21.2954 29.3359 22.2121 28.3556C25.132 25.2331 26.1549 20.8385 24.9389 16.6405C24.8523 16.3415 24.7565 16.0992 24.7259 16.1022C24.6953 16.1051 24.4761 16.3488 24.2387 16.6436Z" fill="white"/>
</svg>
