<svg width="99" height="42" viewBox="0 0 99 42" fill="none" xmlns="http://www.w3.org/2000/svg">
<path fill-rule="evenodd" clip-rule="evenodd" d="M68.2065 0.123178C67.7074 0.43023 66.8876 1.50982 66.3459 2.5733C65.9702 3.31078 65.9836 3.38645 66.5784 3.8899C67.1456 4.37009 68.5468 5.32093 69.1291 5.62076L69.5199 5.822L69.7084 5.68311C70.0642 5.42079 71.2655 3.94655 71.3821 3.62916C71.4024 3.57377 71.5011 3.62731 71.6705 3.78561C72.2837 4.35856 73.5534 5.22737 74.4103 5.66032L74.7607 5.83737L74.9961 5.6313C75.5798 5.12029 76.4272 4.0099 76.8158 3.24677C76.975 2.93402 77.0365 2.72272 77.0401 2.4751C77.0446 2.16904 77.0172 2.10119 76.7728 1.81249C76.1608 1.08972 74.4411 0 73.9123 0C73.3964 0 72.8791 0.457596 72.1866 1.52658L71.82 2.09245L71.3091 1.59284C70.4429 0.746029 69.1992 0.00503533 68.6385 0.00178856C68.5106 0.00105969 68.3162 0.0557248 68.2065 0.123178ZM90.0267 0.191096C89.5105 0.517562 88.4674 1.9973 88.0742 2.96112L87.9171 3.34616L88.1298 3.56801C88.5714 4.02852 90.0268 5.06006 90.9955 5.59916L91.4556 5.85513L92.0256 5.26063C92.3391 4.93364 92.7577 4.42873 92.9558 4.13864C93.1539 3.84855 93.3249 3.59968 93.3359 3.58563C93.3469 3.57158 93.5363 3.7267 93.757 3.93032C94.2271 4.36433 95.5684 5.27316 96.2265 5.6036L96.6867 5.83465L97.0608 5.48493C97.5212 5.05456 98.3964 3.89646 98.71 3.3025C98.8382 3.05985 98.9618 2.72451 98.9848 2.55733C99.0203 2.29938 99.0003 2.21377 98.853 1.99173C98.3779 1.27605 96.4069 0 95.7765 0C95.325 0 94.7499 0.524122 94.0916 1.53579L93.7174 2.1108L93.4393 1.78897C92.8087 1.05904 91.1131 0 90.575 0C90.418 0 90.2196 0.0691101 90.0267 0.191096ZM23.7749 1.6764C23.4676 1.83628 22.356 3.1774 14.0975 13.3515C12.3226 15.5381 10.8515 17.3348 10.8284 17.3441C10.8054 17.3535 10.2787 16.9531 9.65807 16.4544C6.26586 13.7289 3.11886 11.311 2.86321 11.2339C2.62018 11.1606 2.29787 11.3098 1.9729 11.646C1.59138 12.0409 0.853729 12.984 0.360963 13.707C0.0306796 14.1916 -0.0143109 14.2956 0.0032333 14.5342C0.0221731 14.7922 0.0648378 14.8429 0.777904 15.454C1.73905 16.2778 5.04374 18.9972 7.53276 21.0127C10.9549 23.7836 10.9551 23.7838 11.4618 23.6444C11.7428 23.567 11.7749 23.5349 12.8728 22.2305C13.333 21.6838 16.6419 17.7628 20.2259 13.5172C23.8101 9.27153 26.8974 5.61129 27.0868 5.38328C27.7091 4.63401 27.7092 4.18734 27.0871 3.59272C26.5078 3.03898 24.9661 1.84894 24.6118 1.68189C24.1996 1.48762 24.1385 1.48722 23.7749 1.6764ZM73.4233 8.28822C71.8699 8.64993 70.5618 8.95964 70.5163 8.9764C70.457 8.99833 70.5274 9.27345 70.7665 9.95341C71.0969 10.8931 71.629 12.6592 71.629 12.8161C71.629 12.917 71.0699 13.0237 69.8134 13.1624C68.5629 13.3006 64.811 13.3243 64.186 13.198C63.6844 13.0966 63.0911 12.8436 62.8671 12.6354C62.4642 12.261 62.2224 11.3648 62.2701 10.4231C62.2927 9.97554 62.2834 9.93161 62.1605 9.90538C61.9002 9.84978 59.3881 9.47528 59.2757 9.47528C59.2057 9.47528 59.1029 9.59647 59.0086 9.79002C58.7419 10.3377 58.2544 11.0061 57.7888 11.4621C56.7509 12.4786 55.2437 13.0513 53.0879 13.2482C50.646 13.4711 49.5751 13.1163 49.0083 11.8962C48.793 11.4329 48.7002 11.0231 48.6102 10.1379L48.5327 9.37589H47.0406H45.5485L45.4117 9.912C44.7966 12.3218 42.931 13.3034 38.4345 13.5831C35.4688 13.7676 31.0929 13.5537 27.6366 13.0553C26.888 12.9473 26.2554 12.8803 26.231 12.9065C26.1702 12.9716 25.6858 15.0742 25.4797 16.1676C25.3185 17.0224 25.101 18.4313 25.0082 19.2216L24.9647 19.592L26.2502 19.7675C32.3721 20.6038 38.7823 20.5802 42.1605 19.709C43.7285 19.3047 44.7573 18.8077 45.5483 18.0726C46.1564 17.5075 46.2598 17.5003 46.5753 18.0006C47.1174 18.8606 48.1979 19.5637 49.5326 19.9249C50.1701 20.0975 50.2634 20.1048 51.8253 20.1057C53.4684 20.1067 53.811 20.076 55.2145 19.8019C56.8499 19.4824 58.151 18.9202 59.406 17.9906C59.6772 17.7897 59.9688 17.6253 60.0538 17.6253C60.1566 17.6253 60.3216 17.7488 60.5463 17.9939C61.4814 19.014 62.9577 19.765 64.5873 20.0494C65.1181 20.1421 65.5315 20.1532 67.2429 20.1209C69.9218 20.0705 72.2197 19.8316 74.3204 19.3849C75.5989 19.1131 75.4814 19.177 75.7953 18.5832C76.3343 17.5635 76.7013 16.2101 76.9176 14.4448C77.0821 13.1021 77.0221 10.7768 76.7894 9.47528C76.5999 8.41577 76.4039 7.66908 76.3091 7.64569C76.2753 7.6374 74.9767 7.9265 73.4233 8.28822ZM95.2871 8.29769C93.6971 8.66478 92.3852 8.97421 92.3716 8.98535C92.3579 8.99641 92.5296 9.5361 92.7529 10.1846C93.1018 11.1975 93.5593 12.7132 93.5593 12.8564C93.5593 12.9159 92.3842 13.1015 91.4659 13.1872C90.196 13.3056 87.4979 13.342 86.1495 13.2588C84.6864 13.1686 84.0676 13.102 82.9455 12.9136C82.211 12.7904 82.12 12.7871 81.9883 12.879C81.8888 12.9485 81.7241 13.3107 81.4661 14.0275C80.359 17.1036 79.1121 19.5627 77.0277 22.7804C76.572 23.4838 75.9335 24.4322 75.6087 24.8879C75.284 25.3436 75.0182 25.7398 75.0182 25.7682C75.0182 25.8476 75.8564 26.6301 76.4136 27.0709C77.6128 28.0195 80.0751 29.486 80.4686 29.486C80.651 29.486 81.8431 27.3478 82.831 25.2485C83.4479 23.9376 84.6655 21.1153 84.9191 20.4083C85.0041 20.1714 85.0914 19.9571 85.1131 19.9321C85.1348 19.9071 85.5713 19.947 86.083 20.0207C86.9091 20.1398 87.2407 20.1511 89.0403 20.1211C91.0892 20.0869 92.4934 19.9828 94.1906 19.7394C95.2846 19.5824 96.6533 19.3227 97.1296 19.1817C97.4608 19.0837 97.4713 19.0724 97.7328 18.5358C98.2796 17.4139 98.6465 16.0809 98.8401 14.5131C98.9586 13.5542 98.9751 11.4957 98.872 10.5494C98.7553 9.4778 98.341 7.61156 98.2228 7.62515C98.1981 7.62793 96.877 7.93061 95.2871 8.29769ZM10.2907 8.28842C9.16378 8.4326 8.01257 8.78511 6.95314 9.31035C5.84818 9.85813 4.56925 10.7917 4.75393 10.9158C5.05172 11.1157 7.48564 13.0081 8.8951 14.1355L10.5897 15.4909L10.7315 15.3489C10.9722 15.1078 15.74 9.20851 15.74 9.15179C15.74 9.07473 14.763 8.70493 14.1412 8.54663C12.9386 8.24051 11.4468 8.14046 10.2907 8.28842ZM20.5248 15.226C19.6306 16.3047 13.6823 23.3544 13.1794 23.9314C12.7155 24.4638 12.545 24.6095 12.1727 24.7923C11.7799 24.9851 11.6619 25.0118 11.2188 25.0081C10.2915 25.0004 10.3638 25.0518 4.14354 19.9777C2.75462 18.8448 1.57623 17.8921 1.52486 17.8607C1.44571 17.8123 1.43787 17.9437 1.47296 18.7249C1.53623 20.1324 1.77812 21.0517 2.44779 22.4292C4.02378 25.671 7.20846 27.7217 11.0881 27.993C12.8546 28.1165 15.0119 27.5784 16.6265 26.6115C17.5256 26.0732 18.0324 25.6663 18.8086 24.8599C21.2812 22.2915 22.1474 18.6766 21.1177 15.2234C21.0443 14.9774 20.9632 14.7781 20.9373 14.7806C20.9114 14.783 20.7258 14.9835 20.5248 15.226ZM53.6852 22.8436C53.5203 22.9493 53.2626 23.1826 53.1125 23.362C52.7313 23.8177 52.0609 24.8514 51.8322 25.3358C51.5106 26.0175 51.5106 26.0153 51.8359 26.3193C52.4495 26.8926 53.8496 27.8662 54.6797 28.297L55.0917 28.5108L55.4584 28.1536C55.8479 27.774 56.554 26.8995 56.8019 26.4894L56.951 26.2427L57.4547 26.6712C58.0361 27.1659 59.033 27.841 59.7568 28.2302C60.1614 28.4478 60.2839 28.4867 60.3884 28.4309C60.6359 28.2989 61.4083 27.3951 61.9011 26.6608C62.4966 25.7737 62.7026 25.2588 62.5992 24.9153C62.4152 24.3036 60.3849 22.8222 59.5473 22.6887C59.1853 22.631 58.8847 22.7874 58.4424 23.2638C58.1291 23.6013 57.4531 24.5457 57.3901 24.7341C57.3783 24.7696 57.1804 24.6033 56.9505 24.3644C56.1862 23.5709 54.9102 22.7694 54.2841 22.6896C54.0299 22.6571 53.9402 22.6802 53.6852 22.8436ZM35.9779 23.0006C35.4067 23.3088 34.4887 24.4862 33.952 25.5987C33.5485 26.4352 33.5484 26.4301 33.9572 26.8377C34.7371 27.6152 36.9727 29.0884 37.3729 29.0884C37.5348 29.0884 38.379 28.1978 38.8836 27.4946C39.7432 26.2964 40.0088 25.5856 39.7693 25.1237C39.6289 24.8531 38.6997 23.995 38.1602 23.638C37.1137 22.9451 36.4434 22.7494 35.9779 23.0006ZM51.4265 35.5517V39.5633L55.5302 39.5439L59.6338 39.5245L60.0449 39.3517L60.4562 39.1788L60.5381 39.3761L60.62 39.5734L61.589 39.5425C62.3716 39.5174 62.6281 39.4841 62.9233 39.3689C63.1243 39.2905 63.3064 39.2264 63.328 39.2264C63.3496 39.2263 63.4027 39.3042 63.4462 39.3993L63.5253 39.5723L64.4703 39.5433C65.1803 39.5216 65.5075 39.4821 65.7856 39.3846C66.155 39.2552 66.1566 39.2552 66.4502 39.3897C66.7158 39.5113 66.8774 39.5245 68.1068 39.5244C69.4323 39.5243 69.4805 39.5195 69.8892 39.348L70.3093 39.1717L70.587 39.2929C71.0949 39.5146 71.6285 39.5751 72.7715 39.5408C74.2362 39.4967 74.7205 39.3313 75.1258 38.7367C75.4857 38.2086 75.5072 37.9915 75.5337 34.6357L75.5582 31.5358L74.7732 31.5545L73.9881 31.5732L73.9549 34.4556C73.918 37.6543 73.9197 37.6425 73.472 37.8806C73.157 38.0481 71.9571 38.0471 71.6175 37.8791C71.134 37.6398 71.1331 37.6336 71.1107 34.4038L71.0908 31.5359L70.3132 31.5546L69.5356 31.5732L69.5024 34.4887C69.4714 37.2117 69.4609 37.4164 69.343 37.5898C69.1202 37.9175 68.8832 37.9927 68.0598 37.9968C67.4303 37.9999 67.2965 37.9822 67.1959 37.8822C67.0861 37.773 67.0786 37.6247 67.1 35.9772L67.1231 34.1905H66.3235H65.5239L65.5029 35.7311C65.4847 37.0627 65.4654 37.3046 65.3604 37.515C65.215 37.8066 64.9471 37.9471 64.4192 38.009L64.0337 38.0542L64.0809 37.8617C64.1069 37.7558 64.1448 37.0197 64.1652 36.2258L64.2021 34.7825L63.4132 34.8012L62.6243 34.82L62.5906 36.0789C62.5459 37.752 62.4652 37.9 61.5402 38.0043L61.1293 38.0507L61.179 37.6281C61.2063 37.3956 61.2287 36.6687 61.2287 36.0127V34.82H60.4645H59.7002L59.6666 36.0789C59.6164 37.9572 59.5971 37.978 57.8561 38.0212L56.743 38.0489V36.1197V34.1905H55.9787H55.2145V36.1121V38.0336H54.0848H52.955V34.7869V31.5401H52.1908H51.4265V35.5517ZM38.9992 32.1265C38.6183 32.5062 38.7032 33.1391 39.1641 33.3571C39.4408 33.4881 39.6173 33.4891 39.8655 33.3611C40.3145 33.1296 40.3862 32.4646 39.9993 32.1199C39.7063 31.8589 39.2646 31.8618 38.9992 32.1265ZM40.8486 32.0511C40.6254 32.1891 40.5279 32.399 40.5279 32.741C40.5279 33.1858 40.9946 33.5422 41.4335 33.4323C41.5296 33.4082 41.6941 33.3029 41.799 33.1983C41.9548 33.043 41.9899 32.951 41.9899 32.6981C41.9899 32.434 41.9564 32.3549 41.7639 32.1629C41.5841 31.9836 41.4858 31.938 41.2821 31.9394C41.1414 31.9404 40.9463 31.9907 40.8486 32.0511ZM46.5984 34.0196C46.0539 34.1512 45.5269 34.4436 45.1417 34.8276C44.7597 35.2085 44.5355 35.5652 44.6258 35.6483C44.6563 35.6765 44.9505 35.8523 45.2794 36.0391C45.8143 36.3428 45.8846 36.3668 45.944 36.2663C46.1648 35.8928 46.5439 35.5756 46.8887 35.4756C47.5562 35.2821 48.372 35.5426 48.6019 36.0227C48.732 36.2944 48.7356 37.2285 48.6078 37.5336C48.4119 38.001 48.4152 38.0005 45.814 38.0005C43.1614 38.0005 43.1515 37.9987 42.9165 37.4826C42.8045 37.2366 42.7901 37.0353 42.7888 35.6979L42.7873 34.1905H42.2211C41.69 34.1905 41.6503 34.2003 41.5831 34.3473L41.5115 34.5041L41.1692 34.3699C40.6881 34.1814 39.8353 34.1877 39.3215 34.3834C38.2759 34.7818 37.7154 35.6528 37.7186 36.8741C37.7216 38.0268 38.2399 38.9143 39.1571 39.3369C39.5448 39.5156 39.6102 39.5245 40.5279 39.5245C41.3845 39.5245 41.5271 39.5081 41.8128 39.3766C42.1002 39.2443 42.153 39.2384 42.3126 39.3207C42.6934 39.5171 43.2931 39.5576 45.8067 39.5565C48.565 39.5552 49.0054 39.5123 49.4771 39.1987C49.9875 38.8594 50.2132 38.2773 50.2756 37.1391C50.341 35.9479 50.1356 35.3469 49.4485 34.7191C48.7235 34.0567 47.5925 33.7791 46.5984 34.0196ZM39.6978 35.7921C39.2746 36.1241 39.1367 36.932 39.408 37.4907C39.5987 37.8837 39.9768 38.0605 40.5394 38.02C41.0941 37.98 41.1539 37.9005 41.1826 37.1642C41.2101 36.4617 41.0966 36.0783 40.7838 35.8158C40.5152 35.5904 39.9701 35.5785 39.6978 35.7921ZM54.6973 40.5887C54.3105 40.8588 54.2609 41.4089 54.5923 41.7538C54.82 41.9907 55.1202 42.0504 55.4319 41.9205C56.1641 41.6154 55.9252 40.4853 55.1286 40.4853C54.9728 40.4853 54.7787 40.5318 54.6973 40.5887ZM56.4845 40.5778C56.2634 40.6999 56.15 40.9323 56.1472 41.2689C56.1453 41.4981 56.1831 41.5938 56.3357 41.746C56.4407 41.8506 56.6051 41.9559 56.7012 41.9799C57.1401 42.0898 57.6069 41.7334 57.6069 41.2886C57.6069 41.1418 57.5745 40.9506 57.5348 40.8638C57.3828 40.5311 56.8375 40.3826 56.4845 40.5778Z" fill="white"/>
</svg>
