<svg width="1490" height="634" viewBox="0 0 1490 634" fill="none" xmlns="http://www.w3.org/2000/svg">
<path fill-rule="evenodd" clip-rule="evenodd" d="M1026.35 1.85899C1018.84 6.49299 1006.5 22.786 998.353 38.836C992.7 49.966 992.901 51.108 1001.85 58.706C1010.39 65.953 1031.47 80.303 1040.23 84.828L1046.11 87.865L1048.95 85.769C1054.3 81.81 1072.38 59.561 1074.14 54.771C1074.44 53.935 1075.93 54.743 1078.48 57.132C1087.7 65.779 1106.81 78.891 1119.7 85.425L1124.98 88.097L1128.52 84.987C1137.3 77.275 1150.05 60.517 1155.9 49C1158.3 44.28 1159.22 41.091 1159.28 37.354C1159.34 32.735 1158.93 31.711 1155.25 27.354C1146.04 16.446 1120.17 0 1112.21 0C1104.45 0 1096.66 6.906 1086.24 23.039L1080.73 31.579L1073.04 24.039C1060 11.259 1041.29 0.0759928 1032.85 0.0269928C1030.93 0.0159928 1028 0.840994 1026.35 1.85899ZM1354.69 2.884C1346.93 7.811 1331.23 30.143 1325.31 44.689L1322.95 50.5L1326.15 53.848C1332.8 60.798 1354.69 76.366 1369.27 84.502L1376.2 88.365L1384.77 79.393C1389.49 74.458 1395.79 66.838 1398.77 62.46C1401.75 58.082 1404.32 54.326 1404.49 54.114C1404.65 53.902 1407.51 56.243 1410.83 59.316C1417.9 65.866 1438.08 79.582 1447.99 84.569L1454.91 88.056L1460.54 82.778C1467.47 76.283 1480.64 58.805 1485.36 49.841C1487.29 46.179 1489.15 41.118 1489.49 38.595C1490.03 34.702 1489.73 33.41 1487.51 30.059C1480.36 19.258 1450.7 0 1441.21 0C1434.42 0 1425.77 7.90999 1415.86 23.178L1410.23 31.856L1406.05 26.999C1396.56 15.983 1371.04 0 1362.94 0C1360.58 0 1357.6 1.043 1354.69 2.884ZM357.758 25.3C353.134 27.713 336.406 47.953 212.135 201.5C185.427 234.5 163.29 261.615 162.943 261.756C162.596 261.898 154.671 255.855 145.332 248.329C94.2867 207.195 46.9316 170.705 43.0846 169.541C39.4276 168.434 34.5777 170.686 29.6877 175.761C23.9467 181.72 12.8467 195.954 5.43166 206.865C0.461657 214.178 -0.215346 215.748 0.0486537 219.349C0.333654 223.242 0.975659 224.007 11.7057 233.23C26.1687 245.663 75.8967 286.704 113.351 317.121C164.846 358.94 164.85 358.943 172.474 356.839C176.703 355.671 177.185 355.186 193.707 335.5C200.631 327.25 250.422 268.075 304.354 204C358.287 139.925 404.744 84.685 407.594 81.244C416.959 69.936 416.96 63.195 407.598 54.221C398.881 45.864 375.683 27.904 370.351 25.383C364.148 22.451 363.229 22.445 357.758 25.3ZM1104.85 125.085C1081.48 130.544 1061.79 135.218 1061.11 135.471C1060.21 135.802 1061.27 139.954 1064.87 150.216C1069.84 164.397 1077.85 191.051 1077.85 193.419C1077.85 194.942 1069.44 196.552 1050.53 198.646C1031.71 200.731 975.256 201.089 965.851 199.183C958.303 197.653 949.376 193.834 946.005 190.692C939.943 185.042 936.303 171.517 937.021 157.305C937.362 150.55 937.222 149.887 935.372 149.491C931.455 148.652 893.654 143 891.963 143C890.909 143 889.362 144.829 887.944 147.75C883.931 156.016 876.594 166.103 869.588 172.985C853.971 188.326 831.29 196.969 798.851 199.94C762.105 203.305 745.991 197.95 737.462 179.537C734.222 172.544 732.826 166.359 731.472 153L730.306 141.5H707.853H685.4L683.341 149.591C674.085 185.96 646.013 200.774 578.351 204.995C533.724 207.779 467.877 204.551 415.868 197.029C404.602 195.399 395.084 194.389 394.717 194.783C393.802 195.766 386.512 227.499 383.411 244C380.986 256.901 377.713 278.163 376.316 290.09L375.661 295.68L395.006 298.33C487.126 310.95 583.584 310.594 634.418 297.447C658.013 291.344 673.494 283.844 685.397 272.75C694.547 264.222 696.104 264.113 700.851 271.664C709.008 284.642 725.268 295.253 745.351 300.705C754.944 303.309 756.348 303.42 779.851 303.434C804.577 303.448 809.732 302.985 830.851 298.848C855.46 294.027 875.039 285.542 893.924 271.513C898.005 268.481 902.392 266 903.672 266C905.219 266 907.701 267.863 911.083 271.563C925.153 286.958 947.368 298.291 971.89 302.583C979.878 303.982 986.098 304.15 1011.85 303.663C1052.16 302.902 1086.74 299.296 1118.35 292.555C1137.59 288.453 1135.82 289.417 1140.54 280.456C1148.65 265.067 1154.18 244.642 1157.43 218C1159.91 197.735 1159 162.642 1155.5 143C1152.65 127.01 1149.7 115.741 1148.28 115.388C1147.77 115.263 1128.23 119.626 1104.85 125.085ZM1433.85 125.228C1409.93 130.768 1390.18 135.438 1389.98 135.606C1389.77 135.773 1392.36 143.918 1395.72 153.705C1400.97 168.991 1407.85 191.867 1407.85 194.027C1407.85 194.925 1390.17 197.727 1376.35 199.02C1357.24 200.807 1316.64 201.356 1296.35 200.101C1274.33 198.74 1265.02 197.734 1248.14 194.891C1237.09 193.031 1235.72 192.981 1233.73 194.368C1232.24 195.418 1229.76 200.884 1225.88 211.701C1209.22 258.126 1190.45 295.238 1159.09 343.8C1152.23 354.416 1142.62 368.728 1137.74 375.606C1132.85 382.484 1128.85 388.462 1128.85 388.891C1128.85 390.09 1141.46 401.899 1149.85 408.551C1167.89 422.867 1204.95 445 1210.87 445C1213.61 445 1231.55 412.73 1246.42 381.048C1255.7 361.264 1274.02 318.67 1277.84 308C1279.12 304.425 1280.43 301.191 1280.76 300.814C1281.08 300.436 1287.65 301.038 1295.35 302.151C1307.78 303.948 1312.77 304.118 1339.85 303.665C1370.68 303.149 1391.81 301.579 1417.35 297.905C1433.81 295.536 1454.41 291.617 1461.58 289.489C1466.56 288.009 1466.72 287.839 1470.65 279.741C1478.88 262.809 1484.4 242.692 1487.31 219.03C1489.1 204.558 1489.35 173.492 1487.8 159.211C1486.04 143.038 1479.8 114.873 1478.03 115.078C1477.65 115.12 1457.78 119.688 1433.85 125.228ZM154.851 125.088C137.894 127.264 120.571 132.584 104.629 140.511C88.0017 148.778 68.7567 162.868 71.5357 164.74C76.0167 167.757 112.642 196.317 133.851 213.331L159.351 233.787L161.485 231.644C165.107 228.005 236.851 138.974 236.851 138.118C236.851 136.955 222.15 131.374 212.793 128.985C194.697 124.365 172.248 122.855 154.851 125.088ZM308.851 229.789C295.396 246.069 205.888 352.463 198.32 361.171C191.339 369.206 188.774 371.405 183.171 374.163C177.26 377.073 175.485 377.476 168.818 377.42C154.864 377.304 155.951 378.079 62.3507 301.502C41.4507 284.404 23.7187 270.026 22.9457 269.552C21.7547 268.822 21.6367 270.804 22.1647 282.595C23.1167 303.837 26.7567 317.711 36.8337 338.5C60.5487 387.425 108.471 418.374 166.851 422.468C193.433 424.332 225.895 416.211 250.191 401.619C263.72 393.494 271.347 387.353 283.027 375.184C320.233 336.421 333.267 281.865 317.773 229.75C316.669 226.038 315.448 223.03 315.059 223.067C314.669 223.104 311.876 226.129 308.851 229.789ZM807.839 344.754C805.357 346.349 801.479 349.87 799.221 352.577C793.485 359.455 783.396 375.055 779.956 382.366C775.116 392.653 775.116 392.621 780.011 397.208C789.244 405.86 810.312 420.554 822.804 427.056L829.003 430.282L834.521 424.891C840.383 419.163 851.008 405.965 854.738 399.776L856.982 396.052L864.561 402.519C873.31 409.985 888.311 420.174 899.202 426.048C905.29 429.332 907.134 429.919 908.707 429.077C912.431 427.084 924.054 413.444 931.469 402.363C940.43 388.974 943.529 381.204 941.974 376.02C939.205 366.787 908.653 344.431 896.049 342.416C890.603 341.545 886.079 343.906 879.424 351.095C874.709 356.188 864.537 370.442 863.589 373.285C863.411 373.82 860.434 371.31 856.974 367.706C845.473 355.73 826.272 343.633 816.851 342.429C813.025 341.939 811.676 342.287 807.839 344.754ZM541.385 347.123C532.79 351.774 518.975 369.543 510.9 386.333C504.828 398.958 504.827 398.881 510.978 405.032C522.713 416.766 556.354 439 562.376 439C564.813 439 577.516 425.558 585.108 414.946C598.044 396.863 602.04 386.135 598.436 379.164C596.324 375.081 582.341 362.13 574.224 356.742C558.476 346.286 548.39 343.332 541.385 347.123ZM773.851 536.543V597.086L835.601 596.793L897.351 596.5L903.538 593.892L909.726 591.283L910.959 594.26L912.192 597.238L926.772 596.771C938.549 596.393 942.408 595.89 946.851 594.152C949.876 592.969 952.616 592.001 952.94 592.001C953.265 592 954.065 593.175 954.719 594.61L955.909 597.221L970.13 596.784C980.813 596.456 985.737 595.86 989.922 594.389C995.48 592.436 995.504 592.436 999.922 594.466C1003.92 596.301 1006.35 596.5 1024.85 596.498C1044.8 596.497 1045.52 596.425 1051.67 593.836L1057.99 591.175L1062.17 593.005C1069.81 596.351 1077.84 597.264 1095.04 596.746C1117.08 596.081 1124.37 593.585 1130.47 584.61C1135.88 576.641 1136.21 573.364 1136.61 522.718L1136.98 475.935L1125.16 476.218L1113.35 476.5L1112.85 520C1112.3 568.275 1112.32 568.097 1105.58 571.691C1100.84 574.219 1082.79 574.204 1077.68 571.668C1070.4 568.057 1070.39 567.963 1070.05 519.219L1069.75 475.937L1058.05 476.219L1046.35 476.5L1045.85 520.5C1045.38 561.595 1045.23 564.685 1043.45 567.301C1040.1 572.247 1036.53 573.382 1024.14 573.444C1014.67 573.491 1012.66 573.224 1011.14 571.714C1009.49 570.067 1009.38 567.828 1009.7 542.964L1010.05 516H998.016H985.984L985.667 539.25C985.394 559.347 985.103 562.998 983.524 566.173C981.335 570.573 977.304 572.694 969.361 573.628L963.559 574.31L964.27 571.405C964.661 569.807 965.232 558.698 965.538 546.717L966.094 524.934L954.223 525.217L942.351 525.5L941.845 544.5C941.172 569.75 939.958 571.984 926.039 573.558L919.855 574.258L920.603 567.879C921.014 564.371 921.351 553.4 921.351 543.5V525.5H909.851H898.351L897.845 544.5C897.09 572.846 896.799 573.16 870.601 573.813L853.851 574.231V545.115V516H842.351H830.851V545V574H813.851H796.851V525V476H785.351H773.851V536.543ZM586.848 484.85C581.117 490.58 582.394 500.132 589.329 503.423C593.494 505.399 596.149 505.414 599.884 503.483C606.641 499.989 607.719 489.953 601.897 484.75C597.489 480.811 590.842 480.855 586.848 484.85ZM614.677 483.712C611.319 485.795 609.851 488.963 609.851 494.124C609.851 500.837 616.875 506.215 623.479 504.557C624.925 504.194 627.4 502.605 628.979 501.026C631.323 498.682 631.851 497.294 631.851 493.477C631.851 489.491 631.348 488.297 628.451 485.4C625.745 482.694 624.266 482.005 621.201 482.027C619.083 482.041 616.148 482.8 614.677 483.712ZM701.199 513.42C693.005 515.407 685.075 519.819 679.279 525.615C673.531 531.363 670.157 536.746 671.516 538.001C671.975 538.426 676.401 541.079 681.351 543.898C689.4 548.482 690.457 548.844 691.351 547.327C694.674 541.691 700.379 536.903 705.567 535.394C715.612 532.474 727.887 536.406 731.346 543.651C733.304 547.752 733.359 561.849 731.435 566.454C728.487 573.508 728.537 573.5 689.395 573.5C649.48 573.5 649.331 573.473 645.794 565.684C644.109 561.972 643.892 558.934 643.873 538.75L643.851 516H635.33C627.339 516 626.741 516.147 625.73 518.366L624.652 520.732L619.501 518.708C612.262 515.863 599.429 515.957 591.698 518.911C575.965 524.923 567.53 538.068 567.578 556.5C567.623 573.897 575.423 587.291 589.225 593.669C595.059 596.365 596.042 596.5 609.851 596.5C622.741 596.5 624.888 596.252 629.186 594.268C633.511 592.272 634.305 592.183 636.707 593.425C642.438 596.389 651.462 597 689.285 596.983C730.792 596.964 737.419 596.316 744.517 591.583C752.197 586.463 755.593 577.678 756.532 560.5C757.516 542.522 754.425 533.452 744.086 523.978C733.176 513.981 716.158 509.791 701.199 513.42ZM597.36 540.171C590.992 545.181 588.918 557.374 592.999 565.806C595.87 571.737 601.559 574.406 610.024 573.794C618.372 573.19 619.271 571.991 619.704 560.879C620.117 550.277 618.41 544.49 613.702 540.528C609.66 537.127 601.458 536.948 597.36 540.171ZM823.068 612.561C817.248 616.637 816.502 624.939 821.489 630.144C824.915 633.72 829.432 634.62 834.123 632.66C845.14 628.056 841.545 611 829.558 611C827.214 611 824.293 611.702 823.068 612.561ZM849.961 612.396C846.635 614.239 844.928 617.747 844.886 622.827C844.858 626.286 845.427 627.73 847.723 630.026C849.302 631.605 851.777 633.194 853.223 633.557C859.827 635.215 866.851 629.837 866.851 623.124C866.851 620.908 866.363 618.022 865.766 616.712C863.479 611.692 855.273 609.451 849.961 612.396Z" fill="white"/>
</svg>
